# xmcd CD database file
#
# Track frame offsets:
#	150
#	11788
#	21877
#	31990
#	41922
#	53278
#	63908
#	74821
#	86033
#	94545
#	105977
#	117994
#	127423
#	138798
#	149298
#	160388
#	171999
#	183242
#	192755
#	204057
#	216778
#	227460
#	239931
#	254587
#	264230
#	273492
#	285316
#	297913
#	307402
#	318865
#	330286
#
# Disc length: 4563 seconds
#
# Revision: 0
# Processed by: cddbd v1.5.2PL0 Copyright (c) Steve Scherf et al.
# Submitted via: CDex 1.70beta2
#
DISCID=ca11d11f
DTITLE=Patti Page - Patti Page Sings Country And Western Hits
DYEAR=2015
DGENRE=Country
TTITLE0=Mom And Dad's Waltz
TTITLE1=I Walk The Line
TTITLE2=Ceazy Arms
TTITLE3=Faded Love
TTITLE4=Walking The Floor Over You
TTITLE5=Jealous Heart
TTITLE6=Just Because
TTITLE7=Please Help Me, I'm Falling
TTITLE8=Y'All Come
TTITLE9=Have I Told You Lately That I Love You
TTITLE10=Dark Moon
TTITLE11=Release Me
TTITLE12=Go On Home
TTITLE13=Walk On By
TTITLE14=Your Old Love Letters
TTITLE15=That's What It's Like To Be Lonesome
TTITLE16=Invitation To The Blues
TTITLE17=Guess Things Happen That Way
TTITLE18=I Forgot More Than You'll Ever Know
TTITLE19=I Fall To Pieces
TTITLE20=You Don't Know Me
TTITLE21=Am I That Easy To Foget
TTITLE22=Four Walls
TTITLE23=Slowly
TTITLE24=Broken Heart And A Pillow Filled With Tears
TTITLE25=A City Girl Stole My Country Boy
TTITLE26=You'll Answer To Me
TTITLE27=Too Late To Cry
TTITLE28=One Of Us
TTITLE29=Don't Read The Letter
TTITLE30=Goodbye Charlies
EXTD=YEAR: 2015
EXTT0=
EXTT1=
EXTT2=
EXTT3=
EXTT4=
EXTT5=
EXTT6=
EXTT7=
EXTT8=
EXTT9=
EXTT10=
EXTT11=
EXTT12=
EXTT13=
EXTT14=
EXTT15=
EXTT16=
EXTT17=
EXTT18=
EXTT19=
EXTT20=
EXTT21=
EXTT22=
EXTT23=
EXTT24=
EXTT25=
EXTT26=
EXTT27=
EXTT28=
EXTT29=
EXTT30=
PLAYORDER=
